<svg xmlns="http://www.w3.org/2000/svg" width="32" height="32" viewBox="0 0 32 32">
  <rect width="32" height="32" rx="8" fill="#3f68e4"/>
  <g transform="translate(4,4)">
      <path d="M0 0h24v24H0z" fill="none"/>
      <circle cx="20" cy="12" r="2" fill="white"/>
      <circle cx="4" cy="12" r="2" fill="white"/>
      <circle cx="12" cy="20" r="2" fill="white"/>
      <path d="M10.05 8.59L6.03 4.55h-.01l-.31-.32-1.42 1.41 4.02 4.05.01-.01.31.32zm3.893.027l4.405-4.392L19.76 5.64l-4.405 4.393zM10.01 15.36l-1.42-1.41-4.03 4.01-.32.33 1.41 1.41 4.03-4.02zm9.75 2.94l-3.99-4.01-.36-.35L14 15.35l3.99 4.01.35.35z" fill="white"/>
      <circle cx="12" cy="4" r="2" fill="white"/>
  </g>
</svg>
